<?xml version="1.0" encoding="utf-8"?>
<!-- Generator: Adobe Illustrator 23.0.2, SVG Export Plug-In . SVG Version: 6.00 Build 0)  -->
<svg version="1.1" id="Ebene_1" xmlns="http://www.w3.org/2000/svg" xmlns:xlink="http://www.w3.org/1999/xlink" x="0px" y="0px"
	 width="178px" height="68px" viewBox="0 0 178 68" style="enable-background:new 0 0 178 68;" xml:space="preserve">
<style type="text/css">
	.st0{fill:#FFFFFF;}
</style>
<g>
	<g>
		<g id="Ebene_1-2_6_">
			<g>
				<path class="st0" d="M4.24,44.37c-2.06-0.41-3.76-1.46-3.76-3.64c0-2.53,2.69-3.64,5.01-3.64c2.6,0,4.82,1.52,4.95,3.93h-2.4
					c-0.19-1.47-1.47-1.96-2.65-1.96s-2.43,0.44-2.43,1.56c0,0.88,0.75,1.37,1.75,1.56l1.65,0.29c2.06,0.36,4.3,1.18,4.3,3.78
					c0,2.6-2.57,3.84-5.09,3.84c-3.09,0-5.13-1.65-5.36-4.36H2.6c0.28,1.84,1.56,2.39,3.05,2.39c1.11,0,2.51-0.41,2.51-1.75
					c0-1.07-0.99-1.47-2.32-1.72L4.24,44.37z"/>
				<path class="st0" d="M17.82,36.74c2.72,0,5.82,0.38,5.82,4.37c0,3.38-2.7,4.2-5.74,4.2h-2.04v4.71h-2.57V36.74H17.82z
					 M15.86,38.88v4.29h2.07c1.55,0,2.76-0.38,2.76-2.05c0-2.07-1.58-2.24-2.93-2.24L15.86,38.88z"/>
				<path class="st0" d="M27.86,50.02h-2.57V37.17h2.57V50.02z"/>
				<path class="st0" d="M39.08,50.02l-5.22-9.8v9.8h-2.57V37.17h3.35l5.22,9.8v-9.8h2.57v12.86H39.08z"/>
				<path class="st0" d="M45.86,37.17h9.43v1.71h-6.86v3.43h6.43v2.14h-6.43v3.43h6.86v2.14h-9.43V37.17z"/>
			</g>
			<path class="st0" d="M16.37,16.96c-5.41,0-9.27,2.33-11.78,5.53c0.83-4.99,2.35-9.83,4.5-14.41c1.39-2.79,2.11-3.62,3.22-3.62
				s1.83,0.84,3.22,3.62c1.39,2.9,2.51,5.92,3.33,9.03c-0.82-0.11-1.64-0.17-2.47-0.16 M42.02,25.96c-5.97,0-10.29-4.5-10.29-10.9
				S36.03,4.07,42,4.07s10.29,4.58,10.29,10.98S47.97,25.95,42,25.95 M42.08,0.01c-8.04,0-14.65,5.69-14.65,15.04
				c-0.06,2.11,0.41,4.2,1.35,6.09c-1.7-1.09-3.5-2.02-5.37-2.79c-1.08-4.5-2.63-9.19-4.18-12.18c-2.31-4.58-4.53-5.69-6.88-5.69
				S7.77,1.6,5.46,6.18C2.84,11.35,0,21.54,0,27.11c0,1.51,0.81,2.47,2.2,2.47c1.16,0,1.59-0.48,2.71-1.87
				c2.67-3.34,5.77-6.77,11.46-6.77c1.14,0.01,2.27,0.15,3.38,0.4c0.4,1.97,0.65,3.96,0.76,5.97c0.06,1.41,0.8,2.27,2.15,2.27
				s2.03-0.91,2.03-2.46c-0.02-1.39-0.16-2.78-0.43-4.14c1.87,0.86,3.9,1.95,6.17,3.22c5.04,2.78,7.43,3.81,11.58,3.81
				c8.14,0,14.57-5.73,14.57-14.97C56.58,5.69,50.15,0,42.08,0.01"/>
		</g>
	</g>
</g>
</svg>
