<?xml version="1.0" encoding="UTF-8"?>
<!DOCTYPE svg PUBLIC "-//W3C//DTD SVG 1.1//EN" "http://www.w3.org/Graphics/SVG/1.1/DTD/svg11.dtd">
<svg xmlns="http://www.w3.org/2000/svg" version="1.1" width="322px" height="137px" style="shape-rendering:geometricPrecision; text-rendering:geometricPrecision; image-rendering:optimizeQuality; fill-rule:evenodd; clip-rule:evenodd" xmlns:xlink="http://www.w3.org/1999/xlink">
<g><path style="opacity:1" fill="#663ab7" d="M 224.5,87.5 C 225.99,90.8922 228.657,92.2255 232.5,91.5C 232.5,95.8333 232.5,100.167 232.5,104.5C 229.5,104.5 226.5,104.5 223.5,104.5C 222.322,103.001 220.655,102.001 218.5,101.5C 220.637,100.132 222.97,99.1319 225.5,98.5C 225.333,98.1667 225.167,97.8333 225,97.5C 222.291,96.803 219.624,96.4697 217,96.5C 216.275,98.158 215.108,98.658 213.5,98C 212.869,94.4707 212.036,90.9707 211,87.5C 210.5,67.8362 210.333,48.1695 210.5,28.5C 215.167,28.5 219.833,28.5 224.5,28.5C 224.5,48.1667 224.5,67.8333 224.5,87.5 Z"/></g>
<g><path style="opacity:1" fill="#663ab5" d="M 131.5,43.5 C 131.5,44.1667 131.833,44.5 132.5,44.5C 136.298,45.4834 140.298,45.8168 144.5,45.5C 144.5,49.8333 144.5,54.1667 144.5,58.5C 139.637,58.1805 134.97,58.5139 130.5,59.5C 130.334,68.5062 130.5,77.5062 131,86.5C 133.027,89.2387 135.86,90.5721 139.5,90.5C 141.167,90.5 142.833,90.5 144.5,90.5C 144.5,94.5 144.5,98.5 144.5,102.5C 135.8,102.711 127.133,102.377 118.5,101.5C 118.167,100.833 117.833,100.167 117.5,99.5C 116.719,85.5318 116.219,71.5318 116,57.5C 113.281,56.5562 110.448,56.2229 107.5,56.5C 107.5,52.8333 107.5,49.1667 107.5,45.5C 110.448,45.7771 113.281,45.4438 116,44.5C 116.499,39.1771 116.666,33.8437 116.5,28.5C 119.092,28.5457 121.259,29.5457 123,31.5C 124.813,28.9603 127.313,27.9603 130.5,28.5C 130.179,33.6946 130.513,38.6946 131.5,43.5 Z"/></g>
<g><path style="opacity:0.937" fill="#543c8a" d="M 84.5,26.5 C 90.1667,26.5 95.8333,26.5 101.5,26.5C 101.5,31.1667 101.5,35.8333 101.5,40.5C 95.8333,40.5 90.1667,40.5 84.5,40.5C 84.5,35.8333 84.5,31.1667 84.5,26.5 Z"/></g>
<g><path style="opacity:1" fill="#653ab4" d="M 85.5,27.5 C 90.5,27.5 95.5,27.5 100.5,27.5C 100.5,31.5 100.5,35.5 100.5,39.5C 95.5,39.5 90.5,39.5 85.5,39.5C 85.5,35.5 85.5,31.5 85.5,27.5 Z"/></g>
<g><path style="opacity:0.996" fill="#5e3e9c" d="M 131.5,43.5 C 130.513,38.6946 130.179,33.6946 130.5,28.5C 127.313,27.9603 124.813,28.9603 123,31.5C 121.259,29.5457 119.092,28.5457 116.5,28.5C 116.666,33.8437 116.499,39.1771 116,44.5C 113.281,45.4438 110.448,45.7771 107.5,45.5C 107.5,49.1667 107.5,52.8333 107.5,56.5C 110.448,56.2229 113.281,56.5562 116,57.5C 116.219,71.5318 116.719,85.5318 117.5,99.5C 116.207,98.158 115.374,96.4913 115,94.5C 114.5,82.5046 114.333,70.5046 114.5,58.5C 111.833,58.5 109.167,58.5 106.5,58.5C 106.5,53.8333 106.5,49.1667 106.5,44.5C 109.167,44.5 111.833,44.5 114.5,44.5C 114.5,38.5 114.5,32.5 114.5,26.5C 120.167,26.5 125.833,26.5 131.5,26.5C 131.5,32.1667 131.5,37.8333 131.5,43.5 Z"/></g>
<g><path style="opacity:0.969" fill="#5d3f9d" d="M 194.5,47.5 C 194.265,48.0967 193.765,48.4301 193,48.5C 188.25,45.0813 182.917,43.748 177,44.5C 173.833,44.6667 170.667,44.8333 167.5,45C 164.928,47.2868 161.928,48.4535 158.5,48.5C 166.193,42.8654 174.859,41.0321 184.5,43C 188.191,43.8358 191.524,45.3358 194.5,47.5 Z"/></g>
<g><path style="opacity:1" fill="#653ab7" d="M 100.5,46.5 C 100.17,66.0072 100.503,85.3405 101.5,104.5C 100.432,105.434 99.099,105.768 97.5,105.5C 94.0381,104.518 90.3714,104.185 86.5,104.5C 86.5,85.1667 86.5,65.8333 86.5,46.5C 91.1667,46.5 95.8333,46.5 100.5,46.5 Z"/></g>
<g><path style="opacity:1" fill="#5f3ea2" d="M 280.5,53.5 C 279.21,52.9423 278.377,51.9423 278,50.5C 277.667,50.8333 277.333,51.1667 277,51.5C 276.751,50.376 276.251,49.376 275.5,48.5C 267.988,44.6892 259.988,43.5225 251.5,45C 248.673,46.6636 245.673,47.8303 242.5,48.5C 245.557,45.6381 249.224,43.8047 253.5,43C 262.284,41.1916 270.284,42.8583 277.5,48C 279.16,49.4877 280.16,51.321 280.5,53.5 Z"/></g>
<g><path style="opacity:0.408" fill="#52408b" d="M 287.5,41.5 C 293.157,41.3244 295.324,43.991 294,49.5C 291.315,53.0185 288.315,53.3518 285,50.5C 283.779,46.7179 284.613,43.7179 287.5,41.5 Z M 287.5,44.5 C 287.874,49.2969 287.208,49.9635 285.5,46.5C 285.855,45.4777 286.522,44.811 287.5,44.5 Z"/></g>
<g><path style="opacity:0.996" fill="#5e3ba3" d="M 26.5,44.5 C 25.7379,46.9564 25.0712,49.4564 24.5,52C 27.7385,57.3433 29.4051,63.1767 29.5,69.5C 25.9285,61.4583 22.9285,53.125 20.5,44.5C 22.5,44.5 24.5,44.5 26.5,44.5 Z"/></g>
<g><path style="opacity:0.833" fill="#5d4191" d="M 101.5,104.5 C 100.503,85.3405 100.17,66.0072 100.5,46.5C 95.6946,45.5128 90.6946,45.1795 85.5,45.5C 85.5,65.5 85.5,85.5 85.5,105.5C 84.5028,85.3402 84.1695,65.0069 84.5,44.5C 90.1667,44.5 95.8333,44.5 101.5,44.5C 101.5,64.5 101.5,84.5 101.5,104.5 Z"/></g>
<g><path style="opacity:0.964" fill="#5e39a4" d="M 209.5,27.5 C 214.833,27.5 220.167,27.5 225.5,27.5C 225.83,47.6736 225.497,67.6736 224.5,87.5C 224.5,67.8333 224.5,48.1667 224.5,28.5C 219.833,28.5 215.167,28.5 210.5,28.5C 210.333,48.1695 210.5,67.8362 211,87.5C 212.036,90.9707 212.869,94.4707 213.5,98C 215.108,98.658 216.275,98.158 217,96.5C 219.624,96.4697 222.291,96.803 225,97.5C 225.167,97.8333 225.333,98.1667 225.5,98.5C 222.97,99.1319 220.637,100.132 218.5,101.5C 220.655,102.001 222.322,103.001 223.5,104.5C 215.263,104.097 210.763,99.7636 210,91.5C 209.5,70.1693 209.333,48.8359 209.5,27.5 Z"/></g>
<g><path style="opacity:1" fill="#663ab5" d="M 194.5,47.5 C 200.021,51.3683 203.021,56.7017 203.5,63.5C 203.5,77.1667 203.5,90.8333 203.5,104.5C 198.833,104.5 194.167,104.5 189.5,104.5C 189.768,102.901 189.434,101.568 188.5,100.5C 188.565,100.062 188.399,99.7284 188,99.5C 186.143,102.2 183.643,103.866 180.5,104.5C 173.649,104.754 166.982,103.754 160.5,101.5C 161.879,100.137 161.713,99.1374 160,98.5C 158.234,99.2335 156.401,99.5668 154.5,99.5C 154.5,98.1667 154.5,96.8333 154.5,95.5C 155.5,95.5 156.5,95.5 157.5,95.5C 157.367,92.4121 158.7,90.4121 161.5,89.5C 164.427,90.5317 167.093,92.0317 169.5,94C 168.167,94.6667 166.833,95.3333 165.5,96C 168.275,97.2669 170.941,98.7669 173.5,100.5C 174.308,100.192 174.975,99.6924 175.5,99C 174.128,98.5983 172.795,98.0983 171.5,97.5C 170.269,96.3493 170.269,95.1827 171.5,94C 175.764,94.0159 179.764,93.1825 183.5,91.5C 184.197,93.3845 185.197,93.7178 186.5,92.5C 187.446,94.9423 188.946,96.9423 191,98.5C 194.201,96.442 193.701,95.442 189.5,95.5C 188.833,91.8333 188.167,88.1667 187.5,84.5C 187.5,82.8333 187.5,81.1667 187.5,79.5C 188.833,79.1667 188.833,78.8333 187.5,78.5C 179.453,78.2773 171.453,78.7773 163.5,80C 164.973,80.7096 165.64,81.8762 165.5,83.5C 163.801,83.6602 162.134,83.4935 160.5,83C 159.072,79.8913 157.405,79.3913 155.5,81.5C 152.58,78.4288 153.08,76.0955 157,74.5C 157.772,74.6448 158.439,74.9781 159,75.5C 161.391,73.2337 163.891,71.067 166.5,69C 169.992,69.0704 172.992,68.2371 175.5,66.5C 179.353,65.8337 183.353,65.167 187.5,64.5C 183.543,57.2887 177.877,55.622 170.5,59.5C 167.5,59.1667 166.167,60.5 166.5,63.5C 161.167,63.5 155.833,63.5 150.5,63.5C 151.876,57.7443 154.543,52.7443 158.5,48.5C 161.928,48.4535 164.928,47.2868 167.5,45C 170.667,44.8333 173.833,44.6667 177,44.5C 182.917,43.748 188.25,45.0813 193,48.5C 193.765,48.4301 194.265,48.0967 194.5,47.5 Z"/></g>
<g><path style="opacity:1" fill="#5e3e9b" d="M 281.5,55.5 C 282.924,57.5145 283.59,59.8478 283.5,62.5C 277.824,62.6661 272.157,62.4994 266.5,62C 265.039,58.8498 262.539,57.3498 259,57.5C 254.914,57.4197 253.081,59.4197 253.5,63.5C 252.802,61.3331 251.469,59.4998 249.5,58C 254.442,56.6721 259.442,56.3388 264.5,57C 265.743,58.1545 266.743,59.4878 267.5,61C 272.533,61.8289 277.533,61.6623 282.5,60.5C 281.691,58.9291 281.357,57.2624 281.5,55.5 Z"/></g>
<g><path style="opacity:0.239" fill="#5b3f97" d="M 132.5,44.5 C 136.833,44.5 141.167,44.5 145.5,44.5C 145.5,49.5 145.5,54.5 145.5,59.5C 140.5,59.5 135.5,59.5 130.5,59.5C 134.97,58.5139 139.637,58.1805 144.5,58.5C 144.5,54.1667 144.5,49.8333 144.5,45.5C 140.298,45.8168 136.298,45.4834 132.5,44.5 Z"/></g>
<g><path style="opacity:0.307" fill="#5c4090" d="M 209.5,27.5 C 214.975,26.5111 220.642,26.1778 226.5,26.5C 226.333,47.1694 226.5,67.836 227,88.5C 228.897,90.0163 231.064,90.683 233.5,90.5C 233.5,95.5 233.5,100.5 233.5,105.5C 229.958,105.813 226.625,105.479 223.5,104.5C 226.5,104.5 229.5,104.5 232.5,104.5C 232.5,100.167 232.5,95.8333 232.5,91.5C 228.657,92.2255 225.99,90.8922 224.5,87.5C 225.497,67.6736 225.83,47.6736 225.5,27.5C 220.167,27.5 214.833,27.5 209.5,27.5 Z"/></g>
<g><path style="opacity:1" fill="#613fa6" d="M 100.5,46.5 C 95.8333,46.5 91.1667,46.5 86.5,46.5C 86.5,65.8333 86.5,85.1667 86.5,104.5C 90.3714,104.185 94.0381,104.518 97.5,105.5C 93.5,105.5 89.5,105.5 85.5,105.5C 85.5,85.5 85.5,65.5 85.5,45.5C 90.6946,45.1795 95.6946,45.5128 100.5,46.5 Z"/></g>
<g><path style="opacity:0.231" fill="#5a448a" d="M 170.5,59.5 C 169.172,60.5072 168.172,61.8405 167.5,63.5C 161.68,64.8157 156.013,64.8157 150.5,63.5C 155.833,63.5 161.167,63.5 166.5,63.5C 166.167,60.5 167.5,59.1667 170.5,59.5 Z"/></g>
<g><path style="opacity:1" fill="#663ab5" d="M 280.5,53.5 C 281.338,53.8417 281.672,54.5084 281.5,55.5C 281.357,57.2624 281.691,58.9291 282.5,60.5C 277.533,61.6623 272.533,61.8289 267.5,61C 266.743,59.4878 265.743,58.1545 264.5,57C 259.442,56.3388 254.442,56.6721 249.5,58C 251.469,59.4998 252.802,61.3331 253.5,63.5C 260.028,65.6332 266.694,67.4666 273.5,69C 276.64,69.9911 278.974,71.8244 280.5,74.5C 283.46,79.7288 284.794,85.3954 284.5,91.5C 284.768,93.099 284.434,94.4324 283.5,95.5C 279.973,99.3909 275.973,102.391 271.5,104.5C 263.166,106.122 254.833,105.622 246.5,103C 243.669,101.334 241.336,99.1676 239.5,96.5C 237.948,92.9622 236.948,89.2955 236.5,85.5C 241.595,85.2213 246.595,85.5546 251.5,86.5C 254.498,89.4968 258.165,91.1634 262.5,91.5C 267.882,90.6999 269.216,88.1999 266.5,84C 262.001,82.961 257.668,81.7943 253.5,80.5C 249.354,77.5904 245.02,74.9237 240.5,72.5C 238.848,66.7101 238.181,60.7101 238.5,54.5C 238.845,51.8021 240.178,49.8021 242.5,48.5C 245.673,47.8303 248.673,46.6636 251.5,45C 259.988,43.5225 267.988,44.6892 275.5,48.5C 276.251,49.376 276.751,50.376 277,51.5C 277.333,51.1667 277.667,50.8333 278,50.5C 278.377,51.9423 279.21,52.9423 280.5,53.5 Z"/></g>
<g><path style="opacity:1" fill="#653ab5" d="M 26.5,44.5 C 30.226,44.1774 33.8927,44.5108 37.5,45.5C 41.7652,57.1287 45.9318,68.7954 50,80.5C 54.0682,68.7954 58.2348,57.1287 62.5,45.5C 68.5,44.1667 74.5,44.1667 80.5,45.5C 77.3348,54.3442 74.0014,63.0108 70.5,71.5C 67.7507,74.4969 65.9174,78.1635 65,82.5C 63.8525,83.4581 62.8525,83.1247 62,81.5C 61.3076,82.0253 60.8076,82.6919 60.5,83.5C 61.8962,84.8524 62.5629,86.5191 62.5,88.5C 61.1076,91.7028 60.4409,95.0361 60.5,98.5C 58.4389,99.6817 56.9389,99.0151 56,96.5C 55.3645,97.9663 54.5312,99.2997 53.5,100.5C 54.6888,101.429 56.0222,101.762 57.5,101.5C 57.5,102.5 57.5,103.5 57.5,104.5C 52.5,104.5 47.5,104.5 42.5,104.5C 41.0377,99.6034 39.871,94.6034 39,89.5C 37.9681,87.9733 36.8014,86.64 35.5,85.5C 32.929,80.4628 30.929,75.1294 29.5,69.5C 29.4051,63.1767 27.7385,57.3433 24.5,52C 25.0712,49.4564 25.7379,46.9564 26.5,44.5 Z"/></g>
<g><path style="opacity:1" fill="#5e3da0" d="M 238.5,54.5 C 238.181,60.7101 238.848,66.7101 240.5,72.5C 245.02,74.9237 249.354,77.5904 253.5,80.5C 242.824,78.989 237.157,72.8223 236.5,62C 236.408,59.1789 237.074,56.6789 238.5,54.5 Z"/></g>
<g><path style="opacity:0.863" fill="#5b3f95" d="M 280.5,74.5 C 283.012,76.4784 284.512,79.1451 285,82.5C 285.805,85.6965 285.638,88.6965 284.5,91.5C 284.794,85.3954 283.46,79.7288 280.5,74.5 Z"/></g>
<g><path style="opacity:1" fill="#633cae" d="M 175.5,66.5 C 172.992,68.2371 169.992,69.0704 166.5,69C 163.891,71.067 161.391,73.2337 159,75.5C 158.439,74.9781 157.772,74.6448 157,74.5C 153.08,76.0955 152.58,78.4288 155.5,81.5C 157.405,79.3913 159.072,79.8913 160.5,83C 162.134,83.4935 163.801,83.6602 165.5,83.5C 165.64,81.8762 164.973,80.7096 163.5,80C 171.453,78.7773 179.453,78.2773 187.5,78.5C 187.5,78.8333 187.5,79.1667 187.5,79.5C 181.023,79.2809 174.689,80.1142 168.5,82C 165.209,88.4235 167.376,91.5901 175,91.5C 180.479,91.3476 184.646,89.0142 187.5,84.5C 188.167,88.1667 188.833,91.8333 189.5,95.5C 193.701,95.442 194.201,96.442 191,98.5C 188.946,96.9423 187.446,94.9423 186.5,92.5C 185.197,93.7178 184.197,93.3845 183.5,91.5C 179.764,93.1825 175.764,94.0159 171.5,94C 170.269,95.1827 170.269,96.3493 171.5,97.5C 172.795,98.0983 174.128,98.5983 175.5,99C 174.975,99.6924 174.308,100.192 173.5,100.5C 170.941,98.7669 168.275,97.2669 165.5,96C 166.833,95.3333 168.167,94.6667 169.5,94C 167.093,92.0317 164.427,90.5317 161.5,89.5C 158.7,90.4121 157.367,92.4121 157.5,95.5C 156.5,95.5 155.5,95.5 154.5,95.5C 154.5,96.8333 154.5,98.1667 154.5,99.5C 148.467,91.9877 147.967,83.9877 153,75.5C 159.262,69.4668 166.762,66.4668 175.5,66.5 Z"/></g>
<g><path style="opacity:0.755" fill="#5e4592" d="M 203.5,63.5 C 204.496,77.3234 204.829,91.3234 204.5,105.5C 199.167,105.5 193.833,105.5 188.5,105.5C 188.5,103.833 188.5,102.167 188.5,100.5C 189.434,101.568 189.768,102.901 189.5,104.5C 194.167,104.5 198.833,104.5 203.5,104.5C 203.5,90.8333 203.5,77.1667 203.5,63.5 Z"/></g>
<g><path style="opacity:1" fill="#603ca5" d="M 70.5,71.5 C 67.5377,80.7293 64.2043,89.7293 60.5,98.5C 60.4409,95.0361 61.1076,91.7028 62.5,88.5C 62.5629,86.5191 61.8962,84.8524 60.5,83.5C 60.8076,82.6919 61.3076,82.0253 62,81.5C 62.8525,83.1247 63.8525,83.4581 65,82.5C 65.9174,78.1635 67.7507,74.4969 70.5,71.5 Z"/></g>
<g><path style="opacity:0.757" fill="#5d4294" d="M 251.5,86.5 C 246.595,85.5546 241.595,85.2213 236.5,85.5C 236.948,89.2955 237.948,92.9622 239.5,96.5C 236.075,93.3134 234.741,89.3134 235.5,84.5C 241.271,83.8872 246.604,84.5539 251.5,86.5 Z"/></g>
<g><path style="opacity:1" fill="#613ca4" d="M 35.5,85.5 C 36.8014,86.64 37.9681,87.9733 39,89.5C 39.871,94.6034 41.0377,99.6034 42.5,104.5C 47.5,104.5 52.5,104.5 57.5,104.5C 57.5,103.5 57.5,102.5 57.5,101.5C 56.0222,101.762 54.6888,101.429 53.5,100.5C 54.5312,99.2997 55.3645,97.9663 56,96.5C 56.9389,99.0151 58.4389,99.6817 60.5,98.5C 60.3354,100.827 59.6687,102.993 58.5,105C 52.8431,105.499 47.1764,105.666 41.5,105.5C 39.5,98.8333 37.5,92.1667 35.5,85.5 Z"/></g>
<g><path style="opacity:1" fill="#5f3ca5" d="M 180.5,104.5 C 172.321,106.377 164.321,105.544 156.5,102C 155.619,101.292 154.953,100.458 154.5,99.5C 156.401,99.5668 158.234,99.2335 160,98.5C 161.713,99.1374 161.879,100.137 160.5,101.5C 166.982,103.754 173.649,104.754 180.5,104.5 Z"/></g>
<g><path style="opacity:0.329" fill="#583f8f" d="M 283.5,95.5 C 281.242,100.751 277.242,103.751 271.5,104.5C 275.973,102.391 279.973,99.3909 283.5,95.5 Z"/></g>
<g><path style="opacity:0.988" fill="#5d3f9c" d="M 139.5,90.5 C 141.265,89.5386 143.265,89.2053 145.5,89.5C 145.5,94.5 145.5,99.5 145.5,104.5C 137.826,104.666 130.159,104.5 122.5,104C 120.934,103.392 119.6,102.558 118.5,101.5C 127.133,102.377 135.8,102.711 144.5,102.5C 144.5,98.5 144.5,94.5 144.5,90.5C 142.833,90.5 141.167,90.5 139.5,90.5 Z"/></g>
</svg>
